<svg xmlns="http://www.w3.org/2000/svg" xmlns:xlink="http://www.w3.org/1999/xlink" width="1080" zoomAndPan="magnify" viewBox="0 0 810 277.499997" height="370" preserveAspectRatio="xMidYMid meet" version="1.0"><defs><g/><clipPath id="7a5c086fd2"><path d="M 0.726562 0.300781 L 265.851562 0.300781 L 265.851562 276.558594 L 0.726562 276.558594 Z M 0.726562 0.300781 " clip-rule="nonzero"/></clipPath><clipPath id="984a6cb3cb"><path d="M 272.4375 0.300781 L 537.5625 0.300781 L 537.5625 276.558594 L 272.4375 276.558594 Z M 272.4375 0.300781 " clip-rule="nonzero"/></clipPath><clipPath id="55e5de5cee"><path d="M 544.148438 0.300781 L 809.238281 0.300781 L 809.238281 276.558594 L 544.148438 276.558594 Z M 544.148438 0.300781 " clip-rule="nonzero"/></clipPath><clipPath id="2bf9c9cfc0"><rect x="0" width="64" y="0" height="104"/></clipPath><clipPath id="d7c6821883"><rect x="0" width="64" y="0" height="104"/></clipPath><clipPath id="e02f448b81"><rect x="0" width="67" y="0" height="104"/></clipPath></defs><g clip-path="url(#7a5c086fd2)"><path fill="#25144d" d="M 109.585938 236.191406 L 156.195312 236.191406 C 160.730469 236.191406 164.4375 239.90625 164.4375 244.4375 C 164.4375 248.96875 160.730469 252.679688 156.195312 252.679688 L 109.585938 252.679688 C 105.050781 252.679688 101.339844 248.96875 101.339844 244.4375 C 101.339844 239.90625 105.050781 236.191406 109.585938 236.191406 Z M 0.726562 276.550781 L 265.054688 276.550781 L 265.054688 0.292969 L 0.726562 0.292969 L 0.726562 276.550781 " fill-opacity="1" fill-rule="nonzero"/></g><g clip-path="url(#984a6cb3cb)"><path fill="#25144d" d="M 381.675781 236.191406 L 428.292969 236.191406 C 432.820312 236.191406 436.53125 239.90625 436.53125 244.4375 C 436.53125 248.96875 432.820312 252.679688 428.292969 252.679688 L 381.675781 252.679688 C 377.148438 252.679688 373.4375 248.96875 373.4375 244.4375 C 373.4375 239.90625 377.148438 236.191406 381.675781 236.191406 Z M 272.816406 276.550781 L 537.144531 276.550781 L 537.144531 0.292969 L 272.816406 0.292969 L 272.816406 276.550781 " fill-opacity="1" fill-rule="nonzero"/></g><g clip-path="url(#55e5de5cee)"><path fill="#25144d" d="M 700.382812 252.679688 L 653.765625 252.679688 C 649.238281 252.679688 645.523438 248.96875 645.523438 244.4375 C 645.523438 239.90625 649.238281 236.191406 653.765625 236.191406 L 700.382812 236.191406 C 704.917969 236.191406 708.621094 239.90625 708.621094 244.4375 C 708.621094 248.96875 704.917969 252.679688 700.382812 252.679688 Z M 544.914062 0.292969 L 544.914062 276.550781 L 809.238281 276.550781 L 809.238281 0.292969 L 544.914062 0.292969 " fill-opacity="1" fill-rule="nonzero"/></g><g transform="matrix(1, 0, 0, 1, 104, 74)"><g clip-path="url(#2bf9c9cfc0)"><g fill="#ffffff" fill-opacity="1"><g transform="translate(1.357885, 82.238191)"><g><path d="M 32.453125 -63.375 C 37.109375 -63.375 41.316406 -62.546875 45.078125 -60.890625 C 48.847656 -59.234375 51.941406 -56.941406 54.359375 -54.015625 C 56.773438 -51.097656 58.347656 -47.757812 59.078125 -44 C 59.242188 -43.320312 59.328125 -42.785156 59.328125 -42.390625 C 59.328125 -41.890625 59.226562 -41.550781 59.03125 -41.375 C 58.84375 -41.207031 58.492188 -41.097656 57.984375 -41.046875 L 43.234375 -40.125 C 42.671875 -40.125 42.304688 -40.21875 42.140625 -40.40625 C 41.972656 -40.601562 41.804688 -41.039062 41.640625 -41.71875 C 41.128906 -44.414062 40.195312 -46.535156 38.84375 -48.078125 C 37.5 -49.628906 35.535156 -50.40625 32.953125 -50.40625 C 29.640625 -50.40625 27.082031 -48.941406 25.28125 -46.015625 C 23.488281 -43.097656 22.59375 -38.351562 22.59375 -31.78125 C 22.59375 -24.976562 23.421875 -20.144531 25.078125 -17.28125 C 26.734375 -14.414062 29.332031 -12.984375 32.875 -12.984375 C 35.851562 -12.984375 38.394531 -13.738281 40.5 -15.25 C 42.601562 -16.769531 44.359375 -19.300781 45.765625 -22.84375 C 45.929688 -23.34375 46.410156 -23.59375 47.203125 -23.59375 C 47.585938 -23.59375 47.894531 -23.566406 48.125 -23.515625 L 58.65625 -21.40625 C 59.5 -21.125 59.921875 -20.476562 59.921875 -19.46875 C 59.921875 -17.894531 58.953125 -15.460938 57.015625 -12.171875 C 55.078125 -8.890625 52.039062 -5.898438 47.90625 -3.203125 C 43.78125 -0.503906 38.570312 0.84375 32.28125 0.84375 C 26.320312 0.84375 21.09375 -0.570312 16.59375 -3.40625 C 12.101562 -6.25 8.632812 -10.15625 6.1875 -15.125 C 3.75 -20.101562 2.53125 -25.765625 2.53125 -32.109375 C 2.53125 -38.398438 3.75 -43.90625 6.1875 -48.625 C 8.632812 -53.34375 12.117188 -56.976562 16.640625 -59.53125 C 21.171875 -62.09375 26.441406 -63.375 32.453125 -63.375 Z M 32.453125 -63.375 "/></g></g></g></g></g><g transform="matrix(1, 0, 0, 1, 642, 74)"><g clip-path="url(#d7c6821883)"><g fill="#ffffff" fill-opacity="1"><g transform="translate(0.713318, 82.238191)"><g><path d="M 32.453125 -63.375 C 37.109375 -63.375 41.316406 -62.546875 45.078125 -60.890625 C 48.847656 -59.234375 51.941406 -56.941406 54.359375 -54.015625 C 56.773438 -51.097656 58.347656 -47.757812 59.078125 -44 C 59.242188 -43.320312 59.328125 -42.785156 59.328125 -42.390625 C 59.328125 -41.890625 59.226562 -41.550781 59.03125 -41.375 C 58.84375 -41.207031 58.492188 -41.097656 57.984375 -41.046875 L 43.234375 -40.125 C 42.671875 -40.125 42.304688 -40.21875 42.140625 -40.40625 C 41.972656 -40.601562 41.804688 -41.039062 41.640625 -41.71875 C 41.128906 -44.414062 40.195312 -46.535156 38.84375 -48.078125 C 37.5 -49.628906 35.535156 -50.40625 32.953125 -50.40625 C 29.640625 -50.40625 27.082031 -48.941406 25.28125 -46.015625 C 23.488281 -43.097656 22.59375 -38.351562 22.59375 -31.78125 C 22.59375 -24.976562 23.421875 -20.144531 25.078125 -17.28125 C 26.734375 -14.414062 29.332031 -12.984375 32.875 -12.984375 C 35.851562 -12.984375 38.394531 -13.738281 40.5 -15.25 C 42.601562 -16.769531 44.359375 -19.300781 45.765625 -22.84375 C 45.929688 -23.34375 46.410156 -23.59375 47.203125 -23.59375 C 47.585938 -23.59375 47.894531 -23.566406 48.125 -23.515625 L 58.65625 -21.40625 C 59.5 -21.125 59.921875 -20.476562 59.921875 -19.46875 C 59.921875 -17.894531 58.953125 -15.460938 57.015625 -12.171875 C 55.078125 -8.890625 52.039062 -5.898438 47.90625 -3.203125 C 43.78125 -0.503906 38.570312 0.84375 32.28125 0.84375 C 26.320312 0.84375 21.09375 -0.570312 16.59375 -3.40625 C 12.101562 -6.25 8.632812 -10.15625 6.1875 -15.125 C 3.75 -20.101562 2.53125 -25.765625 2.53125 -32.109375 C 2.53125 -38.398438 3.75 -43.90625 6.1875 -48.625 C 8.632812 -53.34375 12.117188 -56.976562 16.640625 -59.53125 C 21.171875 -62.09375 26.441406 -63.375 32.453125 -63.375 Z M 32.453125 -63.375 "/></g></g></g></g></g><g transform="matrix(1, 0, 0, 1, 372, 74)"><g clip-path="url(#e02f448b81)"><g fill="#ffffff" fill-opacity="1"><g transform="translate(0.463199, 82.238191)"><g><path d="M 62.796875 -2.609375 C 63.015625 -2.160156 63.125 -1.710938 63.125 -1.265625 C 63.125 -0.421875 62.617188 0 61.609375 0 L 45.171875 0 C 43.660156 0 42.648438 -0.5625 42.140625 -1.6875 L 31.859375 -25.109375 C 31.628906 -25.453125 31.40625 -25.625 31.1875 -25.625 C 30.90625 -25.625 30.507812 -25.3125 30 -24.6875 L 24.015625 -17.03125 C 23.679688 -16.632812 23.515625 -16.015625 23.515625 -15.171875 L 23.515625 -2.4375 C 23.515625 -1.539062 23.289062 -0.910156 22.84375 -0.546875 C 22.394531 -0.179688 21.691406 0 20.734375 0 L 6.65625 0 C 5.8125 0 5.21875 -0.164062 4.875 -0.5 C 4.539062 -0.84375 4.375 -1.378906 4.375 -2.109375 L 4.375 -60.59375 C 4.375 -61.21875 4.515625 -61.695312 4.796875 -62.03125 C 5.078125 -62.363281 5.472656 -62.53125 5.984375 -62.53125 L 22 -62.53125 C 23.007812 -62.53125 23.515625 -61.941406 23.515625 -60.765625 L 23.515625 -39.4375 C 23.515625 -38.769531 23.65625 -38.4375 23.9375 -38.4375 C 24.15625 -38.4375 24.4375 -38.628906 24.78125 -39.015625 L 40.28125 -60.765625 C 40.789062 -61.441406 41.285156 -61.90625 41.765625 -62.15625 C 42.242188 -62.40625 42.957031 -62.53125 43.90625 -62.53125 L 56.71875 -62.53125 C 57.394531 -62.53125 57.925781 -62.40625 58.3125 -62.15625 C 58.707031 -61.90625 58.90625 -61.554688 58.90625 -61.109375 C 58.90625 -60.710938 58.765625 -60.375 58.484375 -60.09375 L 44.671875 -43.15625 C 44.273438 -42.707031 44.078125 -42.226562 44.078125 -41.71875 C 44.078125 -41.320312 44.191406 -40.898438 44.421875 -40.453125 Z M 62.796875 -2.609375 "/></g></g></g></g></g></svg>