<svg xmlns="http://www.w3.org/2000/svg" xmlns:xlink="http://www.w3.org/1999/xlink" width="512" zoomAndPan="magnify" viewBox="0 0 384 383.999986" height="512" preserveAspectRatio="xMidYMid meet" version="1.0"><defs><g/><clipPath id="cc13f0c3d4"><path d="M 0 0 L 384 0 L 384 377.808594 L 0 377.808594 Z M 0 0 " clip-rule="nonzero"/></clipPath><clipPath id="2ba3d1d4b4"><path d="M 192 0 C 85.960938 0 0 84.574219 0 188.90625 C 0 293.234375 85.960938 377.808594 192 377.808594 C 298.039062 377.808594 384 293.234375 384 188.90625 C 384 84.574219 298.039062 0 192 0 Z M 192 0 " clip-rule="nonzero"/></clipPath><clipPath id="ff19cf894c"><path d="M 0 0 L 384 0 L 384 377.808594 L 0 377.808594 Z M 0 0 " clip-rule="nonzero"/></clipPath><clipPath id="ede9e2282e"><path d="M 192 0 C 85.960938 0 0 84.574219 0 188.90625 C 0 293.234375 85.960938 377.808594 192 377.808594 C 298.039062 377.808594 384 293.234375 384 188.90625 C 384 84.574219 298.039062 0 192 0 Z M 192 0 " clip-rule="nonzero"/></clipPath><clipPath id="14fe55a20c"><rect x="0" width="384" y="0" height="378"/></clipPath><clipPath id="e3be0a5059"><rect x="0" width="297" y="0" height="142"/></clipPath></defs><g clip-path="url(#cc13f0c3d4)"><g clip-path="url(#2ba3d1d4b4)"><g><g clip-path="url(#14fe55a20c)"><g clip-path="url(#ff19cf894c)"><g clip-path="url(#ede9e2282e)"><path fill="#090139" d="M 0 0 L 383.714844 0 L 383.714844 377.808594 L 0 377.808594 Z M 0 0 " fill-opacity="1" fill-rule="nonzero"/></g></g></g></g></g></g><g transform="matrix(1, 0, 0, 1, 43, 140)"><g clip-path="url(#e3be0a5059)"><g fill="#ffffff" fill-opacity="1"><g transform="translate(1.194724, 100.81783)"><g><path d="M 57.140625 -99.53125 C 62.054688 -99.53125 66.117188 -99.101562 69.328125 -98.25 C 72.546875 -97.40625 76 -96.222656 79.6875 -94.703125 C 80.0625 -94.515625 81.023438 -94.113281 82.578125 -93.5 C 84.140625 -92.882812 85.535156 -92.578125 86.765625 -92.578125 C 90.359375 -92.578125 92.582031 -94.847656 93.4375 -99.390625 L 96.265625 -99.390625 L 96.265625 -66.78125 L 93.4375 -66.78125 C 92.675781 -72.164062 90.757812 -76.863281 87.6875 -80.875 C 84.613281 -84.894531 80.90625 -87.96875 76.5625 -90.09375 C 72.21875 -92.226562 67.773438 -93.296875 63.234375 -93.296875 C 56.804688 -93.296875 51.203125 -91.378906 46.421875 -87.546875 C 41.648438 -83.722656 38.015625 -78.40625 35.515625 -71.59375 C 33.015625 -64.789062 31.765625 -57.085938 31.765625 -48.484375 C 31.765625 -34.585938 34.503906 -23.691406 39.984375 -15.796875 C 45.460938 -7.910156 53.023438 -3.96875 62.671875 -3.96875 C 68.816406 -3.96875 74.34375 -5.429688 79.25 -8.359375 C 84.164062 -11.296875 89.175781 -15.738281 94.28125 -21.6875 L 94.28125 -13.890625 C 88.988281 -8.316406 83.484375 -4.273438 77.765625 -1.765625 C 72.046875 0.734375 65.5 1.984375 58.125 1.984375 C 47.726562 1.984375 38.628906 -0.1875 30.828125 -4.53125 C 23.035156 -8.882812 17.035156 -14.789062 12.828125 -22.25 C 8.617188 -29.71875 6.515625 -37.992188 6.515625 -47.078125 C 6.515625 -56.429688 8.804688 -65.125 13.390625 -73.15625 C 17.984375 -81.1875 24.15625 -87.585938 31.90625 -92.359375 C 39.65625 -97.140625 48.066406 -99.53125 57.140625 -99.53125 Z M 57.140625 -99.53125 "/></g></g></g><g fill="#ffffff" fill-opacity="1"><g transform="translate(103.130403, 100.81783)"><g><path d="M 48.765625 -94.859375 C 44.890625 -94.859375 42.078125 -94.050781 40.328125 -92.4375 C 38.585938 -90.832031 37.71875 -87.90625 37.71875 -83.65625 L 37.71875 -48.625 L 60.546875 -75.71875 C 60.734375 -75.90625 62.148438 -77.695312 64.796875 -81.09375 C 67.441406 -84.5 68.765625 -87.289062 68.765625 -89.46875 C 68.765625 -91.726562 67.910156 -93.164062 66.203125 -93.78125 C 64.503906 -94.394531 61.859375 -94.753906 58.265625 -94.859375 L 58.265625 -97.40625 L 94.859375 -97.40625 L 94.859375 -94.859375 C 91.734375 -94.566406 88.894531 -93.851562 86.34375 -92.71875 C 83.789062 -91.59375 80.835938 -89.492188 77.484375 -86.421875 C 74.128906 -83.347656 69.992188 -78.832031 65.078125 -72.875 L 55.578125 -61.390625 L 84.640625 -15.875 C 87.378906 -11.53125 89.363281 -8.550781 90.59375 -6.9375 C 91.820312 -5.332031 93.097656 -4.195312 94.421875 -3.53125 C 95.742188 -2.875 97.585938 -2.546875 99.953125 -2.546875 L 99.953125 0 L 54.578125 0 L 54.578125 -2.546875 C 57.984375 -2.546875 60.300781 -2.828125 61.53125 -3.390625 C 62.757812 -3.960938 63.375 -4.957031 63.375 -6.375 C 63.375 -7.132812 63.160156 -8.035156 62.734375 -9.078125 C 62.304688 -10.117188 61.289062 -11.960938 59.6875 -14.609375 L 40.96875 -44.375 L 37.71875 -40.546875 L 37.71875 -14.890625 C 37.71875 -10.253906 38.519531 -7.035156 40.125 -5.234375 C 41.726562 -3.441406 44.609375 -2.546875 48.765625 -2.546875 L 48.765625 0 L 1.84375 0 L 1.84375 -2.546875 C 5.15625 -2.640625 7.707031 -2.96875 9.5 -3.53125 C 11.289062 -4.101562 12.660156 -5.265625 13.609375 -7.015625 C 14.554688 -8.765625 15.03125 -11.390625 15.03125 -14.890625 L 15.03125 -82.65625 C 15.03125 -85.78125 14.695312 -88.191406 14.03125 -89.890625 C 13.375 -91.585938 12.097656 -92.835938 10.203125 -93.640625 C 8.316406 -94.453125 5.53125 -94.859375 1.84375 -94.859375 L 1.84375 -97.40625 L 48.765625 -97.40625 Z M 48.765625 -94.859375 "/></g></g></g><g fill="#ffffff" fill-opacity="1"><g transform="translate(194.858303, 100.81783)"><g><path d="M 57.140625 -99.53125 C 62.054688 -99.53125 66.117188 -99.101562 69.328125 -98.25 C 72.546875 -97.40625 76 -96.222656 79.6875 -94.703125 C 80.0625 -94.515625 81.023438 -94.113281 82.578125 -93.5 C 84.140625 -92.882812 85.535156 -92.578125 86.765625 -92.578125 C 90.359375 -92.578125 92.582031 -94.847656 93.4375 -99.390625 L 96.265625 -99.390625 L 96.265625 -66.78125 L 93.4375 -66.78125 C 92.675781 -72.164062 90.757812 -76.863281 87.6875 -80.875 C 84.613281 -84.894531 80.90625 -87.96875 76.5625 -90.09375 C 72.21875 -92.226562 67.773438 -93.296875 63.234375 -93.296875 C 56.804688 -93.296875 51.203125 -91.378906 46.421875 -87.546875 C 41.648438 -83.722656 38.015625 -78.40625 35.515625 -71.59375 C 33.015625 -64.789062 31.765625 -57.085938 31.765625 -48.484375 C 31.765625 -34.585938 34.503906 -23.691406 39.984375 -15.796875 C 45.460938 -7.910156 53.023438 -3.96875 62.671875 -3.96875 C 68.816406 -3.96875 74.34375 -5.429688 79.25 -8.359375 C 84.164062 -11.296875 89.175781 -15.738281 94.28125 -21.6875 L 94.28125 -13.890625 C 88.988281 -8.316406 83.484375 -4.273438 77.765625 -1.765625 C 72.046875 0.734375 65.5 1.984375 58.125 1.984375 C 47.726562 1.984375 38.628906 -0.1875 30.828125 -4.53125 C 23.035156 -8.882812 17.035156 -14.789062 12.828125 -22.25 C 8.617188 -29.71875 6.515625 -37.992188 6.515625 -47.078125 C 6.515625 -56.429688 8.804688 -65.125 13.390625 -73.15625 C 17.984375 -81.1875 24.15625 -87.585938 31.90625 -92.359375 C 39.65625 -97.140625 48.066406 -99.53125 57.140625 -99.53125 Z M 57.140625 -99.53125 "/></g></g></g></g></g></svg>